<svg xmlns="http://www.w3.org/2000/svg" xmlns:xlink="http://www.w3.org/1999/xlink" width="1200" zoomAndPan="magnify" viewBox="0 0 900 899.99999" height="1200" preserveAspectRatio="xMidYMid meet" version="1.0"><defs><filter x="0%" y="0%" width="100%" height="100%" id="6f88ae5c22"><feColorMatrix values="0 0 0 0 1 0 0 0 0 1 0 0 0 0 1 0 0 0 1 0" color-interpolation-filters="sRGB"/></filter><g/><clipPath id="ea91e77f6d"><path d="M 53 119 L 844 119 L 844 869.164062 L 53 869.164062 Z M 53 119 " clip-rule="nonzero"/></clipPath><mask id="339dfc9f63"><g filter="url(#6f88ae5c22)"><rect x="-90" width="1080" fill="#000000" y="-89.999999" height="1079.999988" fill-opacity="0.4"/></g></mask><clipPath id="1af0110b65"><path d="M 1 0.28125 L 789 0.28125 L 789 750 L 1 750 Z M 1 0.28125 " clip-rule="nonzero"/></clipPath><clipPath id="787a0926fa"><rect x="0" width="791" y="0" height="751"/></clipPath><clipPath id="034c4df7f7"><path d="M 59 96 L 884.25 96 L 884.25 849 L 59 849 Z M 59 96 " clip-rule="nonzero"/></clipPath><clipPath id="b4ca7f6a6c"><path d="M 0 45.664062 L 862 45.664062 L 862 287 L 0 287 Z M 0 45.664062 " clip-rule="nonzero"/></clipPath><mask id="a392bbecc4"><g filter="url(#6f88ae5c22)"><rect x="-90" width="1080" fill="#000000" y="-89.999999" height="1079.999988" fill-opacity="0.7"/></g></mask><clipPath id="bd6910644b"><path d="M 0 0.839844 L 861.359375 0.839844 L 861.359375 241 L 0 241 Z M 0 0.839844 " clip-rule="nonzero"/></clipPath><clipPath id="99e9e3add3"><rect x="0" width="862" y="0" height="242"/></clipPath></defs><rect x="-90" width="1080" fill="#ffffff" y="-89.999999" height="1079.999988" fill-opacity="1"/><rect x="-90" width="1080" fill="#ffffff" y="-89.999999" height="1079.999988" fill-opacity="1"/><g clip-path="url(#ea91e77f6d)"><g mask="url(#339dfc9f63)"><g transform="matrix(1, 0, 0, 1, 53, 119)"><g clip-path="url(#787a0926fa)"><g clip-path="url(#1af0110b65)"><path fill="#baa0f6" d="M 7.5 11.710938 C 9.167969 -22.96875 737.976562 35.539062 737.976562 35.539062 C 737.976562 35.539062 712.085938 336.1875 788.75 727.011719 L 50.988281 749.707031 C 50.988281 749.707031 -18.589844 551.917969 7.5 11.710938 Z M 7.5 11.710938 " fill-opacity="1" fill-rule="nonzero"/></g></g></g></g></g><g clip-path="url(#034c4df7f7)"><path fill="#8a5df6" d="M 60.175781 112.949219 C 60.625 78.234375 791.046875 110.976562 791.046875 110.976562 C 791.046875 110.976562 793.9375 413.1875 884.34375 801.066406 L 129.699219 848.933594 C 129.699219 848.933594 53.179688 653.730469 60.175781 112.949219 Z M 60.175781 112.949219 " fill-opacity="1" fill-rule="nonzero"/></g><g clip-path="url(#b4ca7f6a6c)"><g mask="url(#a392bbecc4)"><g transform="matrix(1, 0, 0, 1, 0, 45)"><g clip-path="url(#99e9e3add3)"><g clip-path="url(#bd6910644b)"><path fill="#b6a5dd" d="M 644.859375 3.84375 L 861.144531 180.015625 L 811.589844 240.855469 L 595.304688 64.683594 Z M 44.53125 223.808594 L 274.203125 65.472656 L 229.671875 0.882812 L 0 159.21875 Z M 44.53125 223.808594 " fill-opacity="1" fill-rule="nonzero"/></g></g></g></g></g><g fill="#000000" fill-opacity="1"><g transform="translate(204.809479, 553.636356)"><g><path d="M 84.171875 -103.09375 C 85.453125 -103.195312 86.460938 -103.046875 87.203125 -102.640625 C 87.941406 -102.234375 88.53125 -101.453125 88.96875 -100.296875 C 89.414062 -99.148438 89.726562 -97.445312 89.90625 -95.1875 C 90.082031 -92.914062 90.039062 -91.171875 89.78125 -89.953125 C 89.53125 -88.742188 89.066406 -87.894531 88.390625 -87.40625 C 87.722656 -86.925781 86.75 -86.632812 85.46875 -86.53125 L 80.859375 -86.171875 L 86.8125 -10.390625 C 86.957031 -8.617188 86.390625 -7.234375 85.109375 -6.234375 C 83.835938 -5.242188 81.585938 -4.617188 78.359375 -4.359375 C 75.867188 -4.171875 73.992188 -4.363281 72.734375 -4.9375 C 71.472656 -5.519531 70.316406 -6.53125 69.265625 -7.96875 L 28.1875 -65.3125 L 27.890625 -65.28125 L 31.515625 -19.140625 L 40.46875 -19.84375 C 41.757812 -19.945312 42.773438 -19.796875 43.515625 -19.390625 C 44.253906 -18.984375 44.84375 -18.203125 45.28125 -17.046875 C 45.71875 -15.898438 46.03125 -14.191406 46.21875 -11.921875 C 46.394531 -9.660156 46.351562 -7.921875 46.09375 -6.703125 C 45.832031 -5.492188 45.367188 -4.644531 44.703125 -4.15625 C 44.035156 -3.675781 43.054688 -3.382812 41.765625 -3.28125 L 9.125 -0.71875 C 7.84375 -0.613281 6.832031 -0.75 6.09375 -1.125 C 5.351562 -1.507812 4.757812 -2.273438 4.3125 -3.421875 C 3.875 -4.578125 3.566406 -6.285156 3.390625 -8.546875 C 3.203125 -10.816406 3.238281 -12.554688 3.5 -13.765625 C 3.769531 -14.984375 4.238281 -15.847656 4.90625 -16.359375 C 5.570312 -16.867188 6.546875 -17.175781 7.828125 -17.28125 L 13.25 -17.703125 L 8.3125 -80.46875 L 2.890625 -80.046875 C 1.609375 -79.941406 0.601562 -80.078125 -0.125 -80.453125 C -0.863281 -80.835938 -1.457031 -81.601562 -1.90625 -82.75 C -2.351562 -83.90625 -2.664062 -85.617188 -2.84375 -87.890625 C -3.019531 -90.148438 -2.976562 -91.882812 -2.71875 -93.09375 C -2.457031 -94.3125 -1.992188 -95.175781 -1.328125 -95.6875 C -0.660156 -96.195312 0.3125 -96.503906 1.59375 -96.609375 L 22.921875 -98.28125 C 25.078125 -98.445312 26.644531 -97.835938 27.625 -96.453125 L 65.5 -43.59375 L 65.828125 -43.609375 L 62.59375 -84.734375 L 55.171875 -84.15625 C 53.867188 -84.050781 52.851562 -84.1875 52.125 -84.5625 C 51.394531 -84.9375 50.804688 -85.703125 50.359375 -86.859375 C 49.921875 -88.015625 49.613281 -89.726562 49.4375 -92 C 49.257812 -94.257812 49.296875 -95.992188 49.546875 -97.203125 C 49.804688 -98.410156 50.265625 -99.269531 50.921875 -99.78125 C 51.585938 -100.300781 52.570312 -100.613281 53.875 -100.71875 Z M 84.171875 -103.09375 "/></g></g></g><g fill="#000000" fill-opacity="1"><g transform="translate(304.022287, 545.838878)"><g><path d="M 43.609375 -80.328125 C 51.796875 -80.960938 59.085938 -79.851562 65.484375 -77 C 71.878906 -74.144531 76.960938 -69.882812 80.734375 -64.21875 C 84.515625 -58.550781 86.703125 -51.953125 87.296875 -44.421875 C 87.890625 -36.878906 86.765625 -30.015625 83.921875 -23.828125 C 81.078125 -17.640625 76.71875 -12.632812 70.84375 -8.8125 C 64.96875 -4.988281 57.9375 -2.757812 49.75 -2.125 C 41.5625 -1.476562 34.265625 -2.582031 27.859375 -5.4375 C 21.460938 -8.289062 16.375 -12.550781 12.59375 -18.21875 C 8.8125 -23.882812 6.625 -30.488281 6.03125 -38.03125 C 5.4375 -45.5625 6.5625 -52.421875 9.40625 -58.609375 C 12.257812 -64.796875 16.625 -69.800781 22.5 -73.625 C 28.382812 -77.445312 35.421875 -79.679688 43.609375 -80.328125 Z M 45.046875 -62 C 41.160156 -61.6875 37.851562 -60.566406 35.125 -58.640625 C 32.40625 -56.722656 30.40625 -54.140625 29.125 -50.890625 C 27.84375 -47.648438 27.363281 -43.929688 27.6875 -39.734375 C 28.019531 -35.535156 29.070312 -31.929688 30.84375 -28.921875 C 32.625 -25.921875 35.007812 -23.679688 38 -22.203125 C 40.988281 -20.734375 44.425781 -20.15625 48.3125 -20.46875 C 52.1875 -20.769531 55.484375 -21.878906 58.203125 -23.796875 C 60.921875 -25.722656 62.921875 -28.304688 64.203125 -31.546875 C 65.492188 -34.796875 65.972656 -38.519531 65.640625 -42.71875 C 65.316406 -46.914062 64.265625 -50.515625 62.484375 -53.515625 C 60.703125 -56.523438 58.316406 -58.765625 55.328125 -60.234375 C 52.347656 -61.710938 48.921875 -62.300781 45.046875 -62 Z M 45.046875 -62 "/></g></g></g><g fill="#000000" fill-opacity="1"><g transform="translate(403.235094, 538.0414)"><g><path d="M 31.5 -100.765625 C 34.03125 -100.960938 36 -100.9375 37.40625 -100.6875 C 38.8125 -100.445312 39.804688 -99.992188 40.390625 -99.328125 C 40.984375 -98.671875 41.328125 -97.703125 41.421875 -96.421875 L 43.21875 -73.625 L 73.203125 -75.984375 C 75.085938 -76.128906 76.453125 -75.613281 77.296875 -74.4375 C 78.148438 -73.257812 78.707031 -71 78.96875 -67.65625 C 79.226562 -64.3125 79.03125 -62.003906 78.375 -60.734375 C 77.71875 -59.472656 76.445312 -58.769531 74.5625 -58.625 L 44.578125 -56.265625 L 46.34375 -33.796875 C 47.050781 -24.859375 50.882812 -20.660156 57.84375 -21.203125 C 60.320312 -21.398438 63.171875 -22.179688 66.390625 -23.546875 C 69.617188 -24.910156 73.359375 -26.757812 77.609375 -29.09375 C 78.753906 -29.664062 79.679688 -29.984375 80.390625 -30.046875 C 81.515625 -30.128906 82.601562 -29.738281 83.65625 -28.875 C 84.707031 -28.019531 85.742188 -26.546875 86.765625 -24.453125 C 87.921875 -22.109375 88.554688 -20.1875 88.671875 -18.6875 C 88.765625 -17.5 88.5625 -16.488281 88.0625 -15.65625 C 87.5625 -14.832031 86.769531 -14.082031 85.6875 -13.40625 C 75.03125 -6.925781 65.632812 -3.363281 57.5 -2.71875 C 48.125 -1.988281 40.765625 -4.039062 35.421875 -8.875 C 30.085938 -13.707031 27.03125 -21.132812 26.25 -31.15625 L 24.390625 -54.671875 L 8.796875 -53.453125 C 6.910156 -53.304688 5.539062 -53.804688 4.6875 -54.953125 C 3.84375 -56.097656 3.289062 -58.34375 3.03125 -61.6875 C 2.769531 -65.03125 2.96875 -67.347656 3.625 -68.640625 C 4.28125 -69.941406 5.550781 -70.664062 7.4375 -70.8125 L 23.03125 -72.03125 L 21.234375 -94.828125 C 21.097656 -96.648438 21.816406 -98.019531 23.390625 -98.9375 C 24.972656 -99.851562 27.675781 -100.460938 31.5 -100.765625 Z M 31.5 -100.765625 "/></g></g></g><g fill="#000000" fill-opacity="1"><g transform="translate(502.447902, 530.243922)"><g><path d="M 44.734375 -80.40625 C 52.921875 -81.050781 60.03125 -79.835938 66.0625 -76.765625 C 72.101562 -73.691406 76.835938 -69.132812 80.265625 -63.09375 C 83.691406 -57.050781 85.722656 -49.988281 86.359375 -41.90625 C 86.503906 -40.070312 86.21875 -38.742188 85.5 -37.921875 C 84.78125 -37.109375 83.503906 -36.632812 81.671875 -36.5 L 29.8125 -32.421875 C 31.164062 -28.179688 33.613281 -25.050781 37.15625 -23.03125 C 40.707031 -21.007812 45.070312 -20.203125 50.25 -20.609375 C 58.59375 -21.265625 67.519531 -23.457031 77.03125 -27.1875 C 77.664062 -27.457031 78.304688 -27.613281 78.953125 -27.65625 C 80.140625 -27.75 81.203125 -27.289062 82.140625 -26.28125 C 83.085938 -25.269531 84.015625 -23.503906 84.921875 -20.984375 C 85.628906 -19.035156 86.035156 -17.359375 86.140625 -15.953125 C 86.253906 -14.554688 86.023438 -13.441406 85.453125 -12.609375 C 84.890625 -11.773438 83.929688 -11.0625 82.578125 -10.46875 C 77.328125 -8.269531 71.941406 -6.4375 66.421875 -4.96875 C 60.910156 -3.507812 55.457031 -2.566406 50.0625 -2.140625 C 41.882812 -1.492188 34.703125 -2.609375 28.515625 -5.484375 C 22.328125 -8.359375 17.453125 -12.625 13.890625 -18.28125 C 10.328125 -23.9375 8.242188 -30.5625 7.640625 -38.15625 C 7.046875 -45.6875 8.132812 -52.539062 10.90625 -58.71875 C 13.675781 -64.90625 17.972656 -69.90625 23.796875 -73.71875 C 29.617188 -77.539062 36.597656 -79.769531 44.734375 -80.40625 Z M 46.171875 -62.078125 C 36.316406 -61.304688 30.554688 -56.675781 28.890625 -48.1875 L 64.4375 -50.984375 C 63.21875 -54.847656 61.023438 -57.753906 57.859375 -59.703125 C 54.703125 -61.648438 50.804688 -62.441406 46.171875 -62.078125 Z M 46.171875 -62.078125 "/></g></g></g><g fill="#000000" fill-opacity="1"><g transform="translate(601.66071, 522.446443)"><g><path d="M 67.203125 -82.171875 C 70.640625 -82.441406 73.113281 -82.242188 74.625 -81.578125 C 76.144531 -80.910156 76.976562 -79.664062 77.125 -77.84375 L 78.46875 -60.78125 C 78.613281 -58.957031 78.132812 -57.609375 77.03125 -56.734375 C 75.9375 -55.867188 74.070312 -55.332031 71.4375 -55.125 C 68.582031 -54.894531 66.566406 -55.304688 65.390625 -56.359375 C 61.941406 -59.492188 58.117188 -61.613281 53.921875 -62.71875 C 49.722656 -63.820312 44.925781 -64.164062 39.53125 -63.75 C 36.351562 -63.5 33.90625 -62.734375 32.1875 -61.453125 C 30.476562 -60.179688 29.695312 -58.601562 29.84375 -56.71875 C 30.019531 -54.457031 32.144531 -53.003906 36.21875 -52.359375 C 38.351562 -51.972656 41.96875 -51.742188 47.0625 -51.671875 C 52.125 -51.460938 56.332031 -51.191406 59.6875 -50.859375 C 63.050781 -50.523438 66.265625 -49.882812 69.328125 -48.9375 C 73.765625 -47.5 77.320312 -45.285156 80 -42.296875 C 82.675781 -39.316406 84.21875 -35.210938 84.625 -29.984375 C 85.03125 -24.867188 84.125 -20.335938 81.90625 -16.390625 C 79.6875 -12.453125 76.25 -9.28125 71.59375 -6.875 C 66.9375 -4.476562 61.210938 -3.015625 54.421875 -2.484375 C 46.929688 -1.898438 39.832031 -3.265625 33.125 -6.578125 L 33.171875 -5.9375 C 33.316406 -4.101562 32.640625 -2.734375 31.140625 -1.828125 C 29.640625 -0.929688 27.164062 -0.347656 23.71875 -0.078125 C 20.28125 0.191406 17.800781 -0.00390625 16.28125 -0.671875 C 14.757812 -1.335938 13.925781 -2.585938 13.78125 -4.421875 L 12.375 -22.4375 C 12.226562 -24.207031 12.753906 -25.546875 13.953125 -26.453125 C 15.160156 -27.367188 17.085938 -27.929688 19.734375 -28.140625 C 23.023438 -28.398438 25.316406 -27.816406 26.609375 -26.390625 C 29.578125 -23.210938 33.222656 -21.003906 37.546875 -19.765625 C 41.867188 -18.535156 46.539062 -18.117188 51.5625 -18.515625 C 60.164062 -19.191406 64.289062 -21.769531 63.9375 -26.25 C 63.832031 -27.582031 63.144531 -28.609375 61.875 -29.328125 C 60.601562 -30.046875 58.757812 -30.582031 56.34375 -30.9375 C 54.96875 -31.101562 51.800781 -31.34375 46.84375 -31.65625 C 41.351562 -31.863281 36.625 -32.234375 32.65625 -32.765625 C 28.6875 -33.296875 25.039062 -34.320312 21.71875 -35.84375 C 13.96875 -39.363281 9.75 -45.535156 9.0625 -54.359375 C 8.695312 -59.046875 9.640625 -63.238281 11.890625 -66.9375 C 14.148438 -70.644531 17.425781 -73.597656 21.71875 -75.796875 C 26.019531 -78.003906 30.945312 -79.328125 36.5 -79.765625 C 44.625 -80.398438 51.988281 -79.003906 58.59375 -75.578125 L 58.53125 -76.390625 C 58.382812 -78.210938 58.941406 -79.5625 60.203125 -80.4375 C 61.472656 -81.320312 63.804688 -81.898438 67.203125 -82.171875 Z M 67.203125 -82.171875 "/></g></g></g></svg>