<svg xmlns="http://www.w3.org/2000/svg" xmlns:xlink="http://www.w3.org/1999/xlink" width="1200" zoomAndPan="magnify" viewBox="0 0 900 899.99999" height="1200" preserveAspectRatio="xMidYMid meet" version="1.0"><defs><filter x="0%" y="0%" width="100%" height="100%" id="8ef7d0b126"><feColorMatrix values="0 0 0 0 1 0 0 0 0 1 0 0 0 0 1 0 0 0 1 0" color-interpolation-filters="sRGB"/></filter><g/><clipPath id="c1de57730b"><path d="M 53 119 L 844 119 L 844 869.164062 L 53 869.164062 Z M 53 119 " clip-rule="nonzero"/></clipPath><mask id="ede393d11c"><g filter="url(#8ef7d0b126)"><rect x="-90" width="1080" fill="#000000" y="-89.999999" height="1079.999988" fill-opacity="0.4"/></g></mask><clipPath id="c1b609e66d"><path d="M 1 0.28125 L 789 0.28125 L 789 750 L 1 750 Z M 1 0.28125 " clip-rule="nonzero"/></clipPath><clipPath id="43e2dc2d89"><rect x="0" width="791" y="0" height="751"/></clipPath><clipPath id="4f30f91b0e"><path d="M 59 96 L 884.25 96 L 884.25 849 L 59 849 Z M 59 96 " clip-rule="nonzero"/></clipPath><clipPath id="9a55a927db"><path d="M 0 45.664062 L 862 45.664062 L 862 287 L 0 287 Z M 0 45.664062 " clip-rule="nonzero"/></clipPath><mask id="6cdfa243f6"><g filter="url(#8ef7d0b126)"><rect x="-90" width="1080" fill="#000000" y="-89.999999" height="1079.999988" fill-opacity="0.7"/></g></mask><clipPath id="f6b0f9d5f9"><path d="M 0 0.839844 L 861.359375 0.839844 L 861.359375 241 L 0 241 Z M 0 0.839844 " clip-rule="nonzero"/></clipPath><clipPath id="145a6000c2"><rect x="0" width="862" y="0" height="242"/></clipPath></defs><g clip-path="url(#c1de57730b)"><g mask="url(#ede393d11c)"><g transform="matrix(1, 0, 0, 1, 53, 119)"><g clip-path="url(#43e2dc2d89)"><g clip-path="url(#c1b609e66d)"><path fill="#baa0f6" d="M 7.5 11.710938 C 9.167969 -22.96875 737.976562 35.539062 737.976562 35.539062 C 737.976562 35.539062 712.085938 336.1875 788.75 727.011719 L 50.988281 749.707031 C 50.988281 749.707031 -18.589844 551.917969 7.5 11.710938 Z M 7.5 11.710938 " fill-opacity="1" fill-rule="nonzero"/></g></g></g></g></g><g clip-path="url(#4f30f91b0e)"><path fill="#8a5df6" d="M 60.175781 112.949219 C 60.625 78.234375 791.046875 110.976562 791.046875 110.976562 C 791.046875 110.976562 793.9375 413.1875 884.34375 801.066406 L 129.699219 848.933594 C 129.699219 848.933594 53.179688 653.730469 60.175781 112.949219 Z M 60.175781 112.949219 " fill-opacity="1" fill-rule="nonzero"/></g><g clip-path="url(#9a55a927db)"><g mask="url(#6cdfa243f6)"><g transform="matrix(1, 0, 0, 1, 0, 45)"><g clip-path="url(#145a6000c2)"><g clip-path="url(#f6b0f9d5f9)"><path fill="#b6a5dd" d="M 644.859375 3.84375 L 861.144531 180.015625 L 811.589844 240.855469 L 595.304688 64.683594 Z M 44.53125 223.808594 L 274.203125 65.472656 L 229.671875 0.882812 L 0 159.21875 Z M 44.53125 223.808594 " fill-opacity="1" fill-rule="nonzero"/></g></g></g></g></g><g fill="#000000" fill-opacity="1"><g transform="translate(266.644837, 379.249387)"><g><path d="M 63.03125 -129.609375 C 65.8125 -129.828125 68.113281 -129.46875 69.9375 -128.53125 C 71.757812 -127.59375 73.148438 -125.972656 74.109375 -123.671875 L 111.890625 -30.328125 L 120.96875 -31.046875 C 122.632812 -31.171875 123.941406 -30.988281 124.890625 -30.5 C 125.847656 -30.019531 126.609375 -29.03125 127.171875 -27.53125 C 127.742188 -26.039062 128.144531 -23.832031 128.375 -20.90625 C 128.601562 -17.988281 128.550781 -15.742188 128.21875 -14.171875 C 127.894531 -12.609375 127.300781 -11.492188 126.4375 -10.828125 C 125.582031 -10.160156 124.320312 -9.765625 122.65625 -9.640625 L 78.390625 -6.15625 C 76.722656 -6.03125 75.414062 -6.226562 74.46875 -6.75 C 73.519531 -7.269531 72.753906 -8.273438 72.171875 -9.765625 C 71.597656 -11.265625 71.195312 -13.472656 70.96875 -16.390625 C 70.738281 -19.316406 70.789062 -21.5625 71.125 -23.125 C 71.46875 -24.695312 72.066406 -25.796875 72.921875 -26.421875 C 73.773438 -27.054688 75.035156 -27.4375 76.703125 -27.5625 L 85.6875 -28.265625 L 79.796875 -43.03125 L 41.796875 -40.046875 L 38.296875 -24.546875 L 46.015625 -25.15625 C 47.679688 -25.28125 48.988281 -25.097656 49.9375 -24.609375 C 50.894531 -24.128906 51.660156 -23.140625 52.234375 -21.640625 C 52.804688 -20.148438 53.207031 -17.941406 53.4375 -15.015625 C 53.664062 -12.097656 53.613281 -9.851562 53.28125 -8.28125 C 52.945312 -6.71875 52.347656 -5.601562 51.484375 -4.9375 C 50.628906 -4.269531 49.367188 -3.875 47.703125 -3.75 L 5.53125 -0.4375 C 3.851562 -0.300781 2.539062 -0.492188 1.59375 -1.015625 C 0.644531 -1.546875 -0.113281 -2.554688 -0.6875 -4.046875 C -1.257812 -5.546875 -1.660156 -7.753906 -1.890625 -10.671875 C -2.117188 -13.597656 -2.066406 -15.84375 -1.734375 -17.40625 C -1.398438 -18.976562 -0.804688 -20.078125 0.046875 -20.703125 C 0.898438 -21.328125 2.164062 -21.707031 3.84375 -21.84375 L 12.609375 -22.53125 L 32.640625 -105.71875 L 15.203125 -104.34375 C 13.546875 -104.21875 12.238281 -104.410156 11.28125 -104.921875 C 10.332031 -105.429688 9.570312 -106.429688 9 -107.921875 C 8.425781 -109.421875 8.023438 -111.640625 7.796875 -114.578125 C 7.566406 -117.492188 7.613281 -119.734375 7.9375 -121.296875 C 8.269531 -122.867188 8.867188 -123.96875 9.734375 -124.59375 C 10.609375 -125.21875 11.875 -125.59375 13.53125 -125.71875 Z M 55.5 -107.515625 L 46.1875 -61.921875 L 72.171875 -63.96875 L 56.125 -107.5625 Z M 55.5 -107.515625 "/></g></g><g transform="translate(394.82978, 369.174889)"><g><path d="M 91.328125 -144.96875 C 93.691406 -145.15625 95.414062 -144.78125 96.5 -143.84375 C 97.582031 -142.914062 98.21875 -141.269531 98.40625 -138.90625 L 106.96875 -29.9375 L 116.0625 -30.65625 C 117.726562 -30.789062 119.035156 -30.613281 119.984375 -30.125 C 120.941406 -29.632812 121.703125 -28.640625 122.265625 -27.140625 C 122.835938 -25.648438 123.238281 -23.441406 123.46875 -20.515625 C 123.695312 -17.597656 123.644531 -15.351562 123.3125 -13.78125 C 122.988281 -12.21875 122.394531 -11.101562 121.53125 -10.4375 C 120.675781 -9.78125 119.414062 -9.382812 117.75 -9.25 L 93.328125 -7.328125 C 90.953125 -7.140625 89.222656 -7.507812 88.140625 -8.4375 C 87.054688 -9.363281 86.421875 -11.015625 86.234375 -13.390625 L 85.546875 -22.15625 C 82.359375 -16.3125 78.171875 -11.625 72.984375 -8.09375 C 67.804688 -4.570312 61.910156 -2.550781 55.296875 -2.03125 C 46.179688 -1.3125 38.035156 -2.910156 30.859375 -6.828125 C 23.691406 -10.753906 18 -16.398438 13.78125 -23.765625 C 9.5625 -31.140625 7.078125 -39.554688 6.328125 -49.015625 C 5.585938 -58.484375 6.726562 -67.1875 9.75 -75.125 C 12.769531 -83.070312 17.507812 -89.535156 23.96875 -94.515625 C 30.4375 -99.492188 38.226562 -102.34375 47.34375 -103.0625 C 52.769531 -103.488281 57.898438 -102.828125 62.734375 -101.078125 C 67.566406 -99.328125 71.914062 -96.609375 75.78125 -92.921875 L 73.5 -122.03125 L 58.15625 -120.828125 C 56.476562 -120.691406 55.164062 -120.867188 54.21875 -121.359375 C 53.269531 -121.847656 52.503906 -122.835938 51.921875 -124.328125 C 51.347656 -125.828125 50.945312 -128.039062 50.71875 -130.96875 C 50.488281 -133.882812 50.539062 -136.125 50.875 -137.6875 C 51.207031 -139.257812 51.800781 -140.375 52.65625 -141.03125 C 53.519531 -141.695312 54.789062 -142.097656 56.46875 -142.234375 Z M 53.390625 -79.703125 C 49.085938 -79.367188 45.414062 -77.976562 42.375 -75.53125 C 39.34375 -73.082031 37.128906 -69.773438 35.734375 -65.609375 C 34.347656 -61.453125 33.867188 -56.65625 34.296875 -51.21875 C 34.722656 -45.789062 35.945312 -41.125 37.96875 -37.21875 C 39.988281 -33.3125 42.6875 -30.390625 46.0625 -28.453125 C 49.445312 -26.523438 53.289062 -25.726562 57.59375 -26.0625 C 62.050781 -26.414062 66.007812 -27.773438 69.46875 -30.140625 C 72.925781 -32.515625 75.570312 -35.820312 77.40625 -40.0625 C 79.25 -44.300781 79.953125 -49.203125 79.515625 -54.765625 C 79.078125 -60.335938 77.617188 -65.070312 75.140625 -68.96875 C 72.660156 -72.863281 69.53125 -75.710938 65.75 -77.515625 C 61.96875 -79.328125 57.847656 -80.054688 53.390625 -79.703125 Z M 53.390625 -79.703125 "/></g></g><g transform="translate(523.014723, 359.10039)"><g><path d="M 91.328125 -144.96875 C 93.691406 -145.15625 95.414062 -144.78125 96.5 -143.84375 C 97.582031 -142.914062 98.21875 -141.269531 98.40625 -138.90625 L 106.96875 -29.9375 L 116.0625 -30.65625 C 117.726562 -30.789062 119.035156 -30.613281 119.984375 -30.125 C 120.941406 -29.632812 121.703125 -28.640625 122.265625 -27.140625 C 122.835938 -25.648438 123.238281 -23.441406 123.46875 -20.515625 C 123.695312 -17.597656 123.644531 -15.351562 123.3125 -13.78125 C 122.988281 -12.21875 122.394531 -11.101562 121.53125 -10.4375 C 120.675781 -9.78125 119.414062 -9.382812 117.75 -9.25 L 93.328125 -7.328125 C 90.953125 -7.140625 89.222656 -7.507812 88.140625 -8.4375 C 87.054688 -9.363281 86.421875 -11.015625 86.234375 -13.390625 L 85.546875 -22.15625 C 82.359375 -16.3125 78.171875 -11.625 72.984375 -8.09375 C 67.804688 -4.570312 61.910156 -2.550781 55.296875 -2.03125 C 46.179688 -1.3125 38.035156 -2.910156 30.859375 -6.828125 C 23.691406 -10.753906 18 -16.398438 13.78125 -23.765625 C 9.5625 -31.140625 7.078125 -39.554688 6.328125 -49.015625 C 5.585938 -58.484375 6.726562 -67.1875 9.75 -75.125 C 12.769531 -83.070312 17.507812 -89.535156 23.96875 -94.515625 C 30.4375 -99.492188 38.226562 -102.34375 47.34375 -103.0625 C 52.769531 -103.488281 57.898438 -102.828125 62.734375 -101.078125 C 67.566406 -99.328125 71.914062 -96.609375 75.78125 -92.921875 L 73.5 -122.03125 L 58.15625 -120.828125 C 56.476562 -120.691406 55.164062 -120.867188 54.21875 -121.359375 C 53.269531 -121.847656 52.503906 -122.835938 51.921875 -124.328125 C 51.347656 -125.828125 50.945312 -128.039062 50.71875 -130.96875 C 50.488281 -133.882812 50.539062 -136.125 50.875 -137.6875 C 51.207031 -139.257812 51.800781 -140.375 52.65625 -141.03125 C 53.519531 -141.695312 54.789062 -142.097656 56.46875 -142.234375 Z M 53.390625 -79.703125 C 49.085938 -79.367188 45.414062 -77.976562 42.375 -75.53125 C 39.34375 -73.082031 37.128906 -69.773438 35.734375 -65.609375 C 34.347656 -61.453125 33.867188 -56.65625 34.296875 -51.21875 C 34.722656 -45.789062 35.945312 -41.125 37.96875 -37.21875 C 39.988281 -33.3125 42.6875 -30.390625 46.0625 -28.453125 C 49.445312 -26.523438 53.289062 -25.726562 57.59375 -26.0625 C 62.050781 -26.414062 66.007812 -27.773438 69.46875 -30.140625 C 72.925781 -32.515625 75.570312 -35.820312 77.40625 -40.0625 C 79.25 -44.300781 79.953125 -49.203125 79.515625 -54.765625 C 79.078125 -60.335938 77.617188 -65.070312 75.140625 -68.96875 C 72.660156 -72.863281 69.53125 -75.710938 65.75 -77.515625 C 61.96875 -79.328125 57.847656 -80.054688 53.390625 -79.703125 Z M 53.390625 -79.703125 "/></g></g></g><g fill="#000000" fill-opacity="1"><g transform="translate(151.578028, 556.058622)"><g><path d="M 71.25 -104.9375 C 77.582031 -105.4375 83.242188 -104.484375 88.234375 -102.078125 C 93.222656 -99.671875 97.207031 -96.007812 100.1875 -91.09375 C 103.164062 -86.1875 104.925781 -80.289062 105.46875 -73.40625 L 108.859375 -30.09375 L 116.90625 -30.71875 C 118.5625 -30.851562 119.867188 -30.660156 120.828125 -30.140625 C 121.785156 -29.617188 122.546875 -28.609375 123.109375 -27.109375 C 123.679688 -25.609375 124.082031 -23.398438 124.3125 -20.484375 C 124.550781 -17.554688 124.503906 -15.3125 124.171875 -13.75 C 123.847656 -12.1875 123.25 -11.085938 122.375 -10.453125 C 121.507812 -9.828125 120.25 -9.445312 118.59375 -9.3125 L 79.53125 -6.25 C 77.863281 -6.113281 76.554688 -6.289062 75.609375 -6.78125 C 74.660156 -7.269531 73.898438 -8.257812 73.328125 -9.75 C 72.765625 -11.25 72.363281 -13.460938 72.125 -16.390625 C 71.894531 -19.304688 71.941406 -21.546875 72.265625 -23.109375 C 72.597656 -24.679688 73.191406 -25.796875 74.046875 -26.453125 C 74.910156 -27.117188 76.175781 -27.519531 77.84375 -27.65625 L 82.75 -28.046875 L 79.84375 -65.1875 C 79.414062 -70.625 78.148438 -74.65625 76.046875 -77.28125 C 73.953125 -79.914062 70.71875 -81.0625 66.34375 -80.71875 C 62.3125 -80.40625 58.613281 -78.414062 55.25 -74.75 C 51.894531 -71.09375 49.335938 -66.359375 47.578125 -60.546875 C 45.828125 -54.742188 45.207031 -48.640625 45.71875 -42.234375 L 47.046875 -25.234375 L 51.953125 -25.625 C 53.628906 -25.75 54.941406 -25.550781 55.890625 -25.03125 C 56.835938 -24.507812 57.597656 -23.5 58.171875 -22 C 58.753906 -20.507812 59.160156 -18.304688 59.390625 -15.390625 C 59.628906 -12.460938 59.578125 -10.210938 59.234375 -8.640625 C 58.898438 -7.078125 58.300781 -5.976562 57.4375 -5.34375 C 56.582031 -4.71875 55.316406 -4.34375 53.640625 -4.21875 L 14.609375 -1.140625 C 12.941406 -1.015625 11.632812 -1.191406 10.6875 -1.671875 C 9.738281 -2.160156 8.976562 -3.148438 8.40625 -4.640625 C 7.832031 -6.140625 7.425781 -8.351562 7.1875 -11.28125 C 6.957031 -14.195312 7.007812 -16.4375 7.34375 -18 C 7.675781 -19.570312 8.269531 -20.691406 9.125 -21.359375 C 9.988281 -22.023438 11.253906 -22.421875 12.921875 -22.546875 L 20.96875 -23.1875 L 16.765625 -76.828125 L 6.640625 -76.03125 C 4.960938 -75.894531 3.648438 -76.070312 2.703125 -76.5625 C 1.753906 -77.050781 0.992188 -78.039062 0.421875 -79.53125 C -0.148438 -81.03125 -0.550781 -83.242188 -0.78125 -86.171875 C -1.007812 -89.085938 -0.957031 -91.328125 -0.625 -92.890625 C -0.289062 -94.460938 0.300781 -95.578125 1.15625 -96.234375 C 2.007812 -96.898438 3.273438 -97.300781 4.953125 -97.4375 L 30.40625 -99.4375 C 32.78125 -99.625 34.507812 -99.253906 35.59375 -98.328125 C 36.675781 -97.398438 37.3125 -95.75 37.5 -93.375 L 38.6875 -78.234375 C 46.613281 -94.953125 57.46875 -103.851562 71.25 -104.9375 Z M 71.25 -104.9375 "/></g></g><g transform="translate(279.762971, 545.984123)"><g><path d="M 56.328125 -103.765625 C 66.898438 -104.597656 76.320312 -103.171875 84.59375 -99.484375 C 92.875 -95.796875 99.453125 -90.289062 104.328125 -82.96875 C 109.210938 -75.65625 112.035156 -67.125 112.796875 -57.375 C 113.566406 -47.632812 112.109375 -38.769531 108.421875 -30.78125 C 104.742188 -22.800781 99.109375 -16.335938 91.515625 -11.390625 C 83.929688 -6.453125 74.851562 -3.566406 64.28125 -2.734375 C 53.695312 -1.910156 44.265625 -3.34375 35.984375 -7.03125 C 27.710938 -10.726562 21.140625 -16.234375 16.265625 -23.546875 C 11.390625 -30.859375 8.566406 -39.382812 7.796875 -49.125 C 7.035156 -58.875 8.492188 -67.742188 12.171875 -75.734375 C 15.847656 -83.722656 21.476562 -90.1875 29.0625 -95.125 C 36.65625 -100.0625 45.742188 -102.941406 56.328125 -103.765625 Z M 58.203125 -80.078125 C 53.191406 -79.691406 48.925781 -78.253906 45.40625 -75.765625 C 41.894531 -73.285156 39.300781 -69.953125 37.625 -65.765625 C 35.957031 -61.578125 35.335938 -56.765625 35.765625 -51.328125 C 36.191406 -45.898438 37.554688 -41.242188 39.859375 -37.359375 C 42.160156 -33.484375 45.238281 -30.597656 49.09375 -28.703125 C 52.957031 -26.804688 57.394531 -26.050781 62.40625 -26.4375 C 67.414062 -26.832031 71.675781 -28.269531 75.1875 -30.75 C 78.707031 -33.226562 81.296875 -36.5625 82.953125 -40.75 C 84.617188 -44.945312 85.238281 -49.757812 84.8125 -55.1875 C 84.382812 -60.625 83.023438 -65.28125 80.734375 -69.15625 C 78.441406 -73.03125 75.363281 -75.914062 71.5 -77.8125 C 67.644531 -79.71875 63.210938 -80.472656 58.203125 -80.078125 Z M 58.203125 -80.078125 "/></g></g><g transform="translate(407.947913, 535.909624)"><g><path d="M 40.703125 -130.1875 C 43.972656 -130.4375 46.515625 -130.40625 48.328125 -130.09375 C 50.140625 -129.78125 51.429688 -129.195312 52.203125 -128.34375 C 52.972656 -127.5 53.421875 -126.242188 53.546875 -124.578125 L 55.859375 -95.140625 L 94.578125 -98.171875 C 97.003906 -98.367188 98.769531 -97.703125 99.875 -96.171875 C 100.988281 -94.648438 101.710938 -91.726562 102.046875 -87.40625 C 102.390625 -83.101562 102.128906 -80.128906 101.265625 -78.484375 C 100.410156 -76.847656 98.769531 -75.929688 96.34375 -75.734375 L 57.625 -72.703125 L 59.90625 -43.671875 C 60.8125 -32.128906 65.75 -26.707031 74.71875 -27.40625 C 77.925781 -27.65625 81.613281 -28.660156 85.78125 -30.421875 C 89.945312 -32.179688 94.78125 -34.570312 100.28125 -37.59375 C 101.769531 -38.351562 102.96875 -38.765625 103.875 -38.828125 C 105.34375 -38.941406 106.75 -38.4375 108.09375 -37.3125 C 109.4375 -36.195312 110.769531 -34.296875 112.09375 -31.609375 C 113.601562 -28.566406 114.429688 -26.070312 114.578125 -24.125 C 114.703125 -22.59375 114.4375 -21.289062 113.78125 -20.21875 C 113.132812 -19.15625 112.109375 -18.179688 110.703125 -17.296875 C 96.941406 -8.941406 84.804688 -4.351562 74.296875 -3.53125 C 62.191406 -2.570312 52.691406 -5.21875 45.796875 -11.46875 C 38.898438 -17.71875 34.941406 -27.316406 33.921875 -40.265625 L 31.53125 -70.640625 L 11.375 -69.0625 C 8.9375 -68.875 7.171875 -69.523438 6.078125 -71.015625 C 4.984375 -72.503906 4.265625 -75.398438 3.921875 -79.703125 C 3.585938 -84.023438 3.84375 -87.023438 4.6875 -88.703125 C 5.53125 -90.378906 7.171875 -91.3125 9.609375 -91.5 L 29.765625 -93.078125 L 27.453125 -122.515625 C 27.273438 -124.878906 28.203125 -126.648438 30.234375 -127.828125 C 32.265625 -129.003906 35.753906 -129.789062 40.703125 -130.1875 Z M 40.703125 -130.1875 "/></g></g><g transform="translate(536.132856, 525.835126)"><g><path d="M 57.78125 -103.890625 C 68.363281 -104.710938 77.554688 -103.140625 85.359375 -99.171875 C 93.160156 -95.203125 99.273438 -89.3125 103.703125 -81.5 C 108.128906 -73.695312 110.753906 -64.578125 111.578125 -54.140625 C 111.765625 -51.773438 111.394531 -50.0625 110.46875 -49 C 109.539062 -47.945312 107.894531 -47.328125 105.53125 -47.140625 L 38.515625 -41.875 C 40.265625 -36.414062 43.429688 -32.378906 48.015625 -29.765625 C 52.597656 -27.160156 58.226562 -26.117188 64.90625 -26.640625 C 75.695312 -27.484375 87.242188 -30.3125 99.546875 -35.125 C 100.347656 -35.476562 101.164062 -35.6875 102 -35.75 C 103.53125 -35.863281 104.90625 -35.265625 106.125 -33.953125 C 107.351562 -32.648438 108.554688 -30.363281 109.734375 -27.09375 C 110.628906 -24.570312 111.148438 -22.410156 111.296875 -20.609375 C 111.429688 -18.796875 111.140625 -17.351562 110.421875 -16.28125 C 109.703125 -15.21875 108.457031 -14.300781 106.6875 -13.53125 C 99.914062 -10.6875 92.960938 -8.316406 85.828125 -6.421875 C 78.691406 -4.535156 71.644531 -3.316406 64.6875 -2.765625 C 54.113281 -1.941406 44.828125 -3.382812 36.828125 -7.09375 C 28.828125 -10.8125 22.523438 -16.320312 17.921875 -23.625 C 13.328125 -30.925781 10.644531 -39.484375 9.875 -49.296875 C 9.113281 -59.046875 10.519531 -67.910156 14.09375 -75.890625 C 17.675781 -83.867188 23.222656 -90.320312 30.734375 -95.25 C 38.253906 -100.175781 47.269531 -103.054688 57.78125 -103.890625 Z M 59.65625 -80.203125 C 46.925781 -79.203125 39.484375 -73.222656 37.328125 -62.265625 L 83.25 -65.875 C 81.664062 -70.863281 78.832031 -74.613281 74.75 -77.125 C 70.675781 -79.644531 65.644531 -80.671875 59.65625 -80.203125 Z M 59.65625 -80.203125 "/></g></g><g transform="translate(664.317798, 515.760627)"><g><path d="M 86.796875 -106.171875 C 91.253906 -106.515625 94.460938 -106.257812 96.421875 -105.40625 C 98.390625 -104.550781 99.460938 -102.941406 99.640625 -100.578125 L 101.375 -78.546875 C 101.5625 -76.179688 100.945312 -74.429688 99.53125 -73.296875 C 98.113281 -72.171875 95.695312 -71.472656 92.28125 -71.203125 C 88.59375 -70.910156 85.992188 -71.445312 84.484375 -72.8125 C 80.035156 -76.875 75.09375 -79.617188 69.65625 -81.046875 C 64.226562 -82.472656 58.035156 -82.914062 51.078125 -82.375 C 46.972656 -82.050781 43.8125 -81.066406 41.59375 -79.421875 C 39.375 -77.773438 38.363281 -75.734375 38.5625 -73.296875 C 38.789062 -70.378906 41.53125 -68.488281 46.78125 -67.625 C 49.550781 -67.15625 54.226562 -66.863281 60.8125 -66.75 C 67.34375 -66.488281 72.78125 -66.144531 77.125 -65.71875 C 81.46875 -65.289062 85.609375 -64.457031 89.546875 -63.21875 C 95.296875 -61.363281 99.894531 -58.503906 103.34375 -54.640625 C 106.800781 -50.785156 108.796875 -45.484375 109.328125 -38.734375 C 109.847656 -32.128906 108.679688 -26.28125 105.828125 -21.1875 C 102.972656 -16.09375 98.535156 -11.992188 92.515625 -8.890625 C 86.503906 -5.796875 79.109375 -3.90625 70.328125 -3.21875 C 60.660156 -2.457031 51.484375 -4.21875 42.796875 -8.5 L 42.859375 -7.671875 C 43.046875 -5.304688 42.175781 -3.539062 40.25 -2.375 C 38.320312 -1.207031 35.128906 -0.445312 30.671875 -0.09375 C 26.210938 0.25 23 -0.00390625 21.03125 -0.859375 C 19.070312 -1.722656 18 -3.335938 17.8125 -5.703125 L 15.984375 -28.984375 C 15.804688 -31.273438 16.492188 -33.003906 18.046875 -34.171875 C 19.597656 -35.347656 22.078125 -36.070312 25.484375 -36.34375 C 29.734375 -36.675781 32.707031 -35.929688 34.40625 -34.109375 C 38.226562 -29.992188 42.929688 -27.140625 48.515625 -25.546875 C 54.097656 -23.953125 60.128906 -23.410156 66.609375 -23.921875 C 77.734375 -24.796875 83.066406 -28.125 82.609375 -33.90625 C 82.472656 -35.644531 81.582031 -36.972656 79.9375 -37.890625 C 78.289062 -38.816406 75.910156 -39.507812 72.796875 -39.96875 C 71.023438 -40.164062 66.9375 -40.472656 60.53125 -40.890625 C 53.445312 -41.179688 47.335938 -41.664062 42.203125 -42.34375 C 37.078125 -43.019531 32.375 -44.34375 28.09375 -46.3125 C 18.070312 -50.851562 12.613281 -58.828125 11.71875 -70.234375 C 11.238281 -76.296875 12.457031 -81.710938 15.375 -86.484375 C 18.289062 -91.265625 22.519531 -95.078125 28.0625 -97.921875 C 33.613281 -100.773438 39.972656 -102.484375 47.140625 -103.046875 C 57.648438 -103.867188 67.179688 -102.066406 75.734375 -97.640625 L 75.640625 -98.6875 C 75.460938 -101.050781 76.179688 -102.800781 77.796875 -103.9375 C 79.421875 -105.082031 82.421875 -105.828125 86.796875 -106.171875 Z M 86.796875 -106.171875 "/></g></g></g><g fill="#000000" fill-opacity="1"><g transform="translate(228.762108, 717.758193)"><g><path d="M 30.359375 -140.1875 C 32.722656 -140.375 34.445312 -140 35.53125 -139.0625 C 36.625 -138.132812 37.265625 -136.488281 37.453125 -134.125 L 41.4375 -83.390625 C 48.789062 -96.773438 58.382812 -103.929688 70.21875 -104.859375 C 76.550781 -105.359375 82.207031 -104.40625 87.1875 -102 C 92.175781 -99.59375 96.160156 -95.929688 99.140625 -91.015625 C 102.117188 -86.109375 103.878906 -80.210938 104.421875 -73.328125 L 107.8125 -30.015625 L 115.859375 -30.640625 C 117.515625 -30.773438 118.820312 -30.578125 119.78125 -30.046875 C 120.738281 -29.523438 121.5 -28.515625 122.0625 -27.015625 C 122.632812 -25.523438 123.035156 -23.320312 123.265625 -20.40625 C 123.503906 -17.476562 123.457031 -15.226562 123.125 -13.65625 C 122.800781 -12.09375 122.203125 -11 121.328125 -10.375 C 120.460938 -9.75 119.203125 -9.367188 117.546875 -9.234375 L 78.484375 -6.171875 C 76.816406 -6.035156 75.507812 -6.210938 74.5625 -6.703125 C 73.625 -7.191406 72.867188 -8.179688 72.296875 -9.671875 C 71.722656 -11.171875 71.316406 -13.382812 71.078125 -16.3125 C 70.847656 -19.226562 70.898438 -21.46875 71.234375 -23.03125 C 71.566406 -24.601562 72.160156 -25.71875 73.015625 -26.375 C 73.867188 -27.039062 75.128906 -27.441406 76.796875 -27.578125 L 81.703125 -27.953125 L 78.796875 -65.09375 C 78.367188 -70.53125 77.109375 -74.566406 75.015625 -77.203125 C 72.921875 -79.835938 69.679688 -80.984375 65.296875 -80.640625 C 61.265625 -80.328125 57.566406 -78.335938 54.203125 -74.671875 C 50.847656 -71.015625 48.296875 -66.28125 46.546875 -60.46875 C 44.796875 -54.664062 44.175781 -48.5625 44.6875 -42.15625 L 46.015625 -25.15625 L 50.921875 -25.546875 C 52.585938 -25.671875 53.894531 -25.472656 54.84375 -24.953125 C 55.800781 -24.429688 56.566406 -23.421875 57.140625 -21.921875 C 57.710938 -20.429688 58.113281 -18.226562 58.34375 -15.3125 C 58.582031 -12.382812 58.535156 -10.132812 58.203125 -8.5625 C 57.867188 -7 57.269531 -5.898438 56.40625 -5.265625 C 55.539062 -4.640625 54.273438 -4.265625 52.609375 -4.140625 L 13.5625 -1.0625 C 11.894531 -0.9375 10.585938 -1.113281 9.640625 -1.59375 C 8.691406 -2.082031 7.929688 -3.070312 7.359375 -4.5625 C 6.796875 -6.0625 6.394531 -8.273438 6.15625 -11.203125 C 5.925781 -14.117188 5.972656 -16.359375 6.296875 -17.921875 C 6.628906 -19.492188 7.222656 -20.613281 8.078125 -21.28125 C 8.941406 -21.945312 10.207031 -22.34375 11.875 -22.46875 L 19.921875 -23.109375 L 12.53125 -117.25 L 2.40625 -116.453125 C 0.726562 -116.316406 -0.578125 -116.488281 -1.515625 -116.96875 C -2.460938 -117.457031 -3.222656 -118.453125 -3.796875 -119.953125 C -4.378906 -121.453125 -4.785156 -123.664062 -5.015625 -126.59375 C -5.242188 -129.507812 -5.191406 -131.75 -4.859375 -133.3125 C -4.523438 -134.875 -3.929688 -135.988281 -3.078125 -136.65625 C -2.222656 -137.320312 -0.957031 -137.722656 0.71875 -137.859375 Z M 30.359375 -140.1875 "/></g></g><g transform="translate(356.947051, 707.683694)"><g><path d="M 57.78125 -103.890625 C 68.363281 -104.710938 77.554688 -103.140625 85.359375 -99.171875 C 93.160156 -95.203125 99.273438 -89.3125 103.703125 -81.5 C 108.128906 -73.695312 110.753906 -64.578125 111.578125 -54.140625 C 111.765625 -51.773438 111.394531 -50.0625 110.46875 -49 C 109.539062 -47.945312 107.894531 -47.328125 105.53125 -47.140625 L 38.515625 -41.875 C 40.265625 -36.414062 43.429688 -32.378906 48.015625 -29.765625 C 52.597656 -27.160156 58.226562 -26.117188 64.90625 -26.640625 C 75.695312 -27.484375 87.242188 -30.3125 99.546875 -35.125 C 100.347656 -35.476562 101.164062 -35.6875 102 -35.75 C 103.53125 -35.863281 104.90625 -35.265625 106.125 -33.953125 C 107.351562 -32.648438 108.554688 -30.363281 109.734375 -27.09375 C 110.628906 -24.570312 111.148438 -22.410156 111.296875 -20.609375 C 111.429688 -18.796875 111.140625 -17.351562 110.421875 -16.28125 C 109.703125 -15.21875 108.457031 -14.300781 106.6875 -13.53125 C 99.914062 -10.6875 92.960938 -8.316406 85.828125 -6.421875 C 78.691406 -4.535156 71.644531 -3.316406 64.6875 -2.765625 C 54.113281 -1.941406 44.828125 -3.382812 36.828125 -7.09375 C 28.828125 -10.8125 22.523438 -16.320312 17.921875 -23.625 C 13.328125 -30.925781 10.644531 -39.484375 9.875 -49.296875 C 9.113281 -59.046875 10.519531 -67.910156 14.09375 -75.890625 C 17.675781 -83.867188 23.222656 -90.320312 30.734375 -95.25 C 38.253906 -100.175781 47.269531 -103.054688 57.78125 -103.890625 Z M 59.65625 -80.203125 C 46.925781 -79.203125 39.484375 -73.222656 37.328125 -62.265625 L 83.25 -65.875 C 81.664062 -70.863281 78.832031 -74.613281 74.75 -77.125 C 70.675781 -79.644531 65.644531 -80.671875 59.65625 -80.203125 Z M 59.65625 -80.203125 "/></g></g><g transform="translate(485.131993, 697.609195)"><g><path d="M 89 -106.34375 C 94.914062 -106.800781 100.640625 -105.296875 106.171875 -101.828125 C 109.410156 -99.835938 111.171875 -97.03125 111.453125 -93.40625 C 111.628906 -91.113281 111.210938 -88.347656 110.203125 -85.109375 C 109.191406 -81.890625 107.96875 -79.414062 106.53125 -77.6875 C 105.09375 -75.96875 103.507812 -75.039062 101.78125 -74.90625 C 100.800781 -74.832031 99.726562 -75.023438 98.5625 -75.484375 C 94.5 -77.335938 90.378906 -78.097656 86.203125 -77.765625 C 80.835938 -77.347656 75.957031 -75.25 71.5625 -71.46875 C 67.175781 -67.695312 63.8125 -62.707031 61.46875 -56.5 C 59.125 -50.300781 58.242188 -43.507812 58.828125 -36.125 L 59.59375 -26.21875 L 89.546875 -28.578125 C 91.210938 -28.703125 92.519531 -28.503906 93.46875 -27.984375 C 94.425781 -27.460938 95.191406 -26.453125 95.765625 -24.953125 C 96.335938 -23.460938 96.738281 -21.257812 96.96875 -18.34375 C 97.207031 -15.414062 97.160156 -13.164062 96.828125 -11.59375 C 96.492188 -10.03125 95.894531 -8.929688 95.03125 -8.296875 C 94.164062 -7.671875 92.898438 -7.296875 91.234375 -7.171875 L 19.828125 -1.5625 C 18.160156 -1.425781 16.851562 -1.597656 15.90625 -2.078125 C 14.957031 -2.566406 14.195312 -3.5625 13.625 -5.0625 C 13.050781 -6.5625 12.644531 -8.773438 12.40625 -11.703125 C 12.175781 -14.617188 12.226562 -16.859375 12.5625 -18.421875 C 12.894531 -19.984375 13.488281 -21.097656 14.34375 -21.765625 C 15.207031 -22.429688 16.472656 -22.832031 18.140625 -22.96875 L 33.484375 -24.171875 L 29.28125 -77.8125 L 17.0625 -76.84375 C 15.394531 -76.71875 14.082031 -76.894531 13.125 -77.375 C 12.175781 -77.863281 11.414062 -78.851562 10.84375 -80.34375 C 10.28125 -81.84375 9.882812 -84.054688 9.65625 -86.984375 C 9.425781 -89.898438 9.472656 -92.140625 9.796875 -93.703125 C 10.128906 -95.273438 10.722656 -96.394531 11.578125 -97.0625 C 12.441406 -97.726562 13.707031 -98.125 15.375 -98.25 L 43.984375 -100.5 C 46.347656 -100.6875 48.070312 -100.316406 49.15625 -99.390625 C 50.25 -98.460938 50.890625 -96.8125 51.078125 -94.4375 L 52.859375 -71.796875 C 57.285156 -82.296875 62.675781 -90.539062 69.03125 -96.53125 C 75.382812 -102.519531 82.039062 -105.789062 89 -106.34375 Z M 89 -106.34375 "/></g></g><g transform="translate(613.316936, 687.534697)"><g><path d="M 57.78125 -103.890625 C 68.363281 -104.710938 77.554688 -103.140625 85.359375 -99.171875 C 93.160156 -95.203125 99.273438 -89.3125 103.703125 -81.5 C 108.128906 -73.695312 110.753906 -64.578125 111.578125 -54.140625 C 111.765625 -51.773438 111.394531 -50.0625 110.46875 -49 C 109.539062 -47.945312 107.894531 -47.328125 105.53125 -47.140625 L 38.515625 -41.875 C 40.265625 -36.414062 43.429688 -32.378906 48.015625 -29.765625 C 52.597656 -27.160156 58.226562 -26.117188 64.90625 -26.640625 C 75.695312 -27.484375 87.242188 -30.3125 99.546875 -35.125 C 100.347656 -35.476562 101.164062 -35.6875 102 -35.75 C 103.53125 -35.863281 104.90625 -35.265625 106.125 -33.953125 C 107.351562 -32.648438 108.554688 -30.363281 109.734375 -27.09375 C 110.628906 -24.570312 111.148438 -22.410156 111.296875 -20.609375 C 111.429688 -18.796875 111.140625 -17.351562 110.421875 -16.28125 C 109.703125 -15.21875 108.457031 -14.300781 106.6875 -13.53125 C 99.914062 -10.6875 92.960938 -8.316406 85.828125 -6.421875 C 78.691406 -4.535156 71.644531 -3.316406 64.6875 -2.765625 C 54.113281 -1.941406 44.828125 -3.382812 36.828125 -7.09375 C 28.828125 -10.8125 22.523438 -16.320312 17.921875 -23.625 C 13.328125 -30.925781 10.644531 -39.484375 9.875 -49.296875 C 9.113281 -59.046875 10.519531 -67.910156 14.09375 -75.890625 C 17.675781 -83.867188 23.222656 -90.320312 30.734375 -95.25 C 38.253906 -100.175781 47.269531 -103.054688 57.78125 -103.890625 Z M 59.65625 -80.203125 C 46.925781 -79.203125 39.484375 -73.222656 37.328125 -62.265625 L 83.25 -65.875 C 81.664062 -70.863281 78.832031 -74.613281 74.75 -77.125 C 70.675781 -79.644531 65.644531 -80.671875 59.65625 -80.203125 Z M 59.65625 -80.203125 "/></g></g></g></svg>